<svg xmlns="http://www.w3.org/2000/svg" xmlns:xlink="http://www.w3.org/1999/xlink" width="500" zoomAndPan="magnify" viewBox="0 0 375 374.999991" height="500" preserveAspectRatio="xMidYMid meet" version="1.0"><defs><g/><clipPath id="240fd9de6c"><path d="M 123.222656 120.5625 L 163.660156 120.5625 L 163.660156 156.648438 L 123.222656 156.648438 Z M 123.222656 120.5625 " clip-rule="nonzero"/></clipPath><clipPath id="cbaec84542"><path d="M 116.675781 134.046875 L 145.597656 134.046875 L 145.597656 155.574219 L 116.675781 155.574219 Z M 116.675781 134.046875 " clip-rule="nonzero"/></clipPath></defs><g fill="#f10000" fill-opacity="1"><g transform="translate(128.320266, 188.10365)"><g><path d="M 21.734375 0.6875 C 31.617188 0.6875 39.605469 -7.300781 39.605469 -17.183594 C 39.605469 -27.0625 31.617188 -35.050781 21.734375 -35.050781 C 11.855469 -35.050781 3.867188 -27.0625 3.867188 -17.183594 C 3.867188 -7.300781 11.855469 0.6875 21.734375 0.6875 Z M 21.734375 -4.640625 C 14.777344 -4.640625 9.191406 -10.222656 9.191406 -17.183594 C 9.191406 -24.140625 14.777344 -29.726562 21.734375 -29.726562 C 28.609375 -29.726562 34.277344 -24.140625 34.277344 -17.183594 C 34.277344 -10.222656 28.609375 -4.640625 21.734375 -4.640625 Z M 21.734375 -4.640625 "/></g></g></g><g fill="#000000" fill-opacity="1"><g transform="translate(171.773388, 188.10365)"><g><path d="M 21.734375 0.6875 C 29.726562 0.6875 36.425781 -4.46875 38.746094 -11.683594 L 33.078125 -11.683594 C 31.015625 -7.472656 26.71875 -4.640625 21.734375 -4.640625 C 14.777344 -4.640625 9.191406 -10.136719 9.191406 -17.183594 C 9.191406 -24.226562 14.777344 -29.726562 21.734375 -29.726562 C 26.71875 -29.726562 31.015625 -26.890625 33.078125 -22.679688 L 38.746094 -22.679688 C 36.425781 -29.898438 29.726562 -35.050781 21.734375 -35.050781 C 11.855469 -35.050781 3.867188 -27.0625 3.867188 -17.183594 C 3.867188 -7.300781 11.855469 0.6875 21.734375 0.6875 Z M 21.734375 0.6875 "/></g></g></g><g fill="#000000" fill-opacity="1"><g transform="translate(212.746953, 188.10365)"><g><path d="M 9.621094 -40.808594 C 11.597656 -40.808594 13.316406 -42.441406 13.316406 -44.417969 C 13.316406 -46.566406 11.597656 -48.109375 9.621094 -48.109375 C 7.558594 -48.109375 5.84375 -46.566406 5.84375 -44.417969 C 5.84375 -42.441406 7.558594 -40.808594 9.621094 -40.808594 Z M 6.957031 0 L 12.285156 0 L 12.285156 -34.363281 L 6.957031 -34.363281 Z M 6.957031 0 "/></g></g></g><g fill="#000000" fill-opacity="1"><g transform="translate(231.902313, 188.10365)"><g><path d="M 19.933594 -35.050781 C 16.753906 -35.050781 13.832031 -33.761719 11.597656 -31.617188 L 11.597656 -34.363281 L 6.273438 -34.363281 L 6.273438 0 L 11.597656 0 L 11.597656 -21.90625 C 11.597656 -26.289062 15.121094 -29.726562 19.503906 -29.726562 C 23.882812 -29.726562 27.320312 -26.289062 27.320312 -21.90625 L 27.320312 0 L 32.648438 0 L 32.648438 -21.90625 C 32.648438 -29.210938 26.546875 -35.050781 19.933594 -35.050781 Z M 19.933594 -35.050781 "/></g></g></g><g fill="#000000" fill-opacity="1"><g transform="translate(270.384821, 188.10365)"><g><path d="M 43.128906 -4.46875 C 41.238281 -4.46875 39.605469 -5.757812 39.605469 -8.933594 L 39.605469 -34.363281 L 34.277344 -34.363281 L 34.277344 -29.898438 C 31.101562 -33.078125 26.632812 -35.050781 21.734375 -35.050781 C 11.855469 -35.050781 3.867188 -27.0625 3.867188 -17.183594 C 3.867188 -7.300781 11.855469 0.6875 21.734375 0.6875 C 26.890625 0.6875 31.53125 -1.71875 34.792969 -5.242188 C 35.910156 -1.71875 38.660156 0.6875 42.699219 0.6875 C 43.644531 0.6875 44.589844 0.429688 45.277344 0 L 45.277344 -4.46875 Z M 21.734375 -4.640625 C 14.777344 -4.640625 9.191406 -10.222656 9.191406 -17.183594 C 9.191406 -24.140625 14.777344 -29.726562 21.734375 -29.726562 C 28.609375 -29.726562 34.277344 -24.140625 34.277344 -17.183594 C 34.277344 -10.222656 28.609375 -4.640625 21.734375 -4.640625 Z M 21.734375 -4.640625 "/></g></g></g><g fill="#000000" fill-opacity="1"><g transform="translate(316.675726, 188.10365)"><g/></g></g><g clip-path="url(#240fd9de6c)"><path fill="#000000" d="M 133.121094 137.5625 C 139.140625 133.667969 145.980469 124.929688 152.707031 125.402344 C 159.429688 125.875 161.4375 134.730469 156.246094 139.214844 C 156.246094 139.214844 157.78125 133.667969 155.65625 130.125 C 155.65625 130.125 157.191406 136.148438 152.941406 139.097656 C 152.941406 139.097656 152.351562 133.625 149.640625 131.402344 C 149.640625 131.402344 151.878906 136.148438 150.699219 139.214844 C 150.699219 139.214844 139.140625 139.6875 131.589844 147.363281 C 131.589844 147.363281 144.210938 140.160156 157.070312 142.875 L 158.722656 148.1875 C 158.722656 148.1875 142.558594 146.773438 132.179688 155.980469 C 132.179688 155.980469 148.105469 148.425781 162.027344 151.023438 L 159.078125 141.578125 C 159.078125 141.578125 165.09375 134.257812 162.972656 127.410156 C 160.847656 120.5625 151.761719 119.617188 145.15625 123.515625 C 138.550781 127.410156 132.53125 138.980469 123.917969 140.398438 C 123.917969 140.398438 127.105469 141.460938 133.121094 137.5625 Z M 123.253906 140.34375 C 123.28125 140.039062 123.507812 139.789062 123.8125 139.738281 C 128.832031 138.914062 132.984375 134.421875 137.003906 130.082031 C 139.652344 127.214844 142.152344 124.511719 144.816406 122.941406 C 147.417969 121.40625 150.457031 120.5625 153.371094 120.5625 C 155.742188 120.5625 157.917969 121.117188 159.664062 122.171875 C 161.578125 123.328125 162.941406 125.070312 163.605469 127.210938 C 164.121094 128.875 164.226562 130.691406 163.914062 132.617188 C 163.671875 134.136719 163.167969 135.726562 162.425781 137.339844 C 161.4375 139.484375 160.292969 141.085938 159.816406 141.710938 L 162.664062 150.824219 C 162.730469 151.046875 162.679688 151.289062 162.523438 151.464844 C 162.398438 151.609375 162.214844 151.6875 162.027344 151.6875 C 161.984375 151.6875 161.945312 151.683594 161.90625 151.675781 C 160.011719 151.324219 157.96875 151.144531 155.828125 151.144531 C 149.695312 151.144531 143.675781 152.621094 139.703125 153.859375 C 135.394531 155.203125 132.5 156.566406 132.464844 156.582031 C 132.371094 156.625 132.273438 156.648438 132.179688 156.648438 C 131.960938 156.648438 131.75 156.539062 131.621094 156.347656 C 131.441406 156.070312 131.488281 155.703125 131.734375 155.480469 C 135.265625 152.351562 139.808594 150.089844 145.238281 148.757812 C 149.664062 147.671875 153.710938 147.445312 156.324219 147.445312 C 156.914062 147.445312 157.414062 147.457031 157.800781 147.46875 L 156.554688 143.449219 C 154.789062 143.105469 152.929688 142.929688 151.019531 142.929688 C 145.707031 142.929688 140.800781 144.289062 137.621094 145.429688 C 134.164062 146.671875 131.941406 147.929688 131.917969 147.941406 C 131.8125 148 131.699219 148.027344 131.589844 148.027344 C 131.386719 148.027344 131.191406 147.9375 131.058594 147.769531 C 130.855469 147.503906 130.878906 147.132812 131.113281 146.894531 C 132.882812 145.09375 135.015625 143.535156 137.453125 142.261719 C 139.390625 141.246094 141.523438 140.40625 143.796875 139.769531 C 146.808594 138.925781 149.226562 138.660156 150.207031 138.582031 C 150.953125 135.804688 149.058594 131.730469 149.035156 131.6875 C 148.902344 131.40625 148.984375 131.070312 149.230469 130.878906 C 149.347656 130.78125 149.496094 130.734375 149.640625 130.734375 C 149.789062 130.734375 149.9375 130.785156 150.0625 130.886719 C 152.167969 132.609375 153.070312 136.015625 153.417969 137.832031 C 154.46875 136.757812 155.074219 135.304688 155.226562 133.492188 C 155.371094 131.742188 155.015625 130.304688 155.011719 130.289062 C 154.929688 129.96875 155.09375 129.636719 155.398438 129.511719 C 155.484375 129.476562 155.570312 129.460938 155.65625 129.460938 C 155.882812 129.460938 156.105469 129.578125 156.226562 129.78125 C 157.5625 132.011719 157.566406 134.910156 157.335938 136.941406 C 158.550781 135.007812 158.875 132.617188 158.132812 130.390625 C 157.292969 127.863281 155.246094 126.25 152.660156 126.066406 C 152.5 126.058594 152.339844 126.050781 152.179688 126.050781 C 147.972656 126.050781 143.613281 129.804688 139.398438 133.4375 C 137.34375 135.207031 135.398438 136.882812 133.484375 138.125 C 129.5625 140.664062 126.757812 141.195312 125.09375 141.195312 C 124.234375 141.195312 123.761719 141.046875 123.710938 141.03125 C 123.417969 140.933594 123.230469 140.648438 123.253906 140.34375 " fill-opacity="1" fill-rule="nonzero"/></g><g clip-path="url(#cbaec84542)"><path fill="#000000" d="M 127.339844 149.097656 L 129.347656 154.878906 C 129.347656 154.878906 137.132812 148.859375 144.917969 147.796875 C 144.917969 147.796875 139.019531 146.972656 130.410156 151.457031 L 128.519531 146.5 C 128.519531 146.5 122.386719 148.386719 119.90625 143.664062 C 117.429688 138.941406 122.449219 135.671875 129.347656 134.8125 C 129.347656 134.8125 122.476562 133.984375 119.082031 137.527344 C 115.386719 141.382812 117.3125 150.867188 127.339844 149.097656 Z M 116.765625 140.949219 C 116.996094 139.4375 117.648438 138.058594 118.601562 137.066406 C 119.710938 135.910156 121.253906 135.070312 123.191406 134.574219 C 124.851562 134.148438 126.5 134.058594 127.59375 134.058594 C 128.675781 134.058594 129.394531 134.144531 129.425781 134.148438 C 129.761719 134.1875 130.011719 134.472656 130.011719 134.808594 C 130.011719 135.144531 129.761719 135.429688 129.429688 135.472656 C 127.1875 135.75 125.160156 136.292969 123.574219 137.039062 C 121.984375 137.785156 120.855469 138.726562 120.316406 139.761719 C 119.753906 140.84375 119.8125 142.050781 120.496094 143.355469 C 121.492188 145.246094 123.253906 146.207031 125.746094 146.207031 C 127.179688 146.203125 128.316406 145.863281 128.324219 145.863281 C 128.390625 145.839844 128.457031 145.832031 128.519531 145.832031 C 128.789062 145.832031 129.042969 145.996094 129.144531 146.261719 L 130.765625 150.527344 C 136.78125 147.53125 141.425781 147.070312 143.699219 147.070312 C 144.527344 147.070312 144.992188 147.132812 145.011719 147.136719 C 145.339844 147.183594 145.585938 147.464844 145.585938 147.796875 C 145.585938 148.132812 145.339844 148.414062 145.011719 148.457031 C 141.097656 148.992188 137.167969 150.847656 134.558594 152.308594 C 131.710938 153.902344 129.773438 155.394531 129.753906 155.410156 C 129.636719 155.5 129.492188 155.546875 129.347656 155.546875 C 129.28125 155.546875 129.21875 155.539062 129.15625 155.519531 C 128.949219 155.457031 128.789062 155.300781 128.71875 155.097656 L 126.894531 149.839844 C 126.234375 149.933594 125.59375 149.980469 124.984375 149.980469 C 123.070312 149.980469 121.410156 149.53125 120.050781 148.648438 C 118.835938 147.863281 117.890625 146.734375 117.3125 145.378906 C 116.734375 144.019531 116.539062 142.445312 116.765625 140.949219 " fill-opacity="1" fill-rule="nonzero"/></g><g fill="#000000" fill-opacity="1"><g transform="translate(31.638655, 250.896538)"><g><path d="M 96.875 -18.859375 C 93.445312 -13.347656 89.953125 -9.175781 86.390625 -6.34375 C 82.835938 -3.519531 78.695312 -1.378906 73.96875 0.078125 C 69.238281 1.535156 63.675781 2.265625 57.28125 2.265625 C 41.125 2.265625 29.210938 -2.394531 21.546875 -11.71875 C 13.878906 -21.050781 10.046875 -35.125 10.046875 -53.9375 C 10.046875 -72.695312 13.851562 -86.75 21.46875 -96.09375 C 29.082031 -105.445312 40.8125 -110.125 56.65625 -110.125 C 62.945312 -110.125 68.5625 -109.34375 73.5 -107.78125 C 78.4375 -106.226562 82.601562 -104.085938 86 -101.359375 C 89.40625 -98.628906 92.515625 -94.796875 95.328125 -89.859375 L 83.46875 -82.078125 C 81.1875 -85.921875 78.875 -88.84375 76.53125 -90.84375 C 74.195312 -92.84375 71.390625 -94.425781 68.109375 -95.59375 C 64.835938 -96.757812 61.019531 -97.34375 56.65625 -97.34375 C 45.851562 -97.34375 37.914062 -93.742188 32.84375 -86.546875 C 27.78125 -79.359375 25.25 -68.488281 25.25 -53.9375 C 25.25 -39.59375 27.742188 -28.769531 32.734375 -21.46875 C 37.722656 -14.164062 45.75 -10.515625 56.8125 -10.515625 C 62.945312 -10.515625 68.273438 -11.722656 72.796875 -14.140625 C 77.316406 -16.554688 81.367188 -20.726562 84.953125 -26.65625 Z M 96.875 -18.859375 "/></g></g></g><g fill="#f10000" fill-opacity="1"><g transform="translate(133.675997, 247.208201)"><g><path d="M 19.246094 -35.050781 C 16.410156 -35.050781 13.746094 -34.105469 11.597656 -32.5625 L 11.597656 -63.230469 L 6.273438 -63.230469 L 6.273438 0 L 11.597656 0 L 11.597656 -21.992188 C 11.597656 -26.375 15.035156 -29.726562 19.246094 -29.726562 C 23.453125 -29.726562 26.976562 -26.375 26.976562 -21.992188 L 26.976562 0 L 32.21875 0 L 32.21875 -21.992188 C 32.21875 -29.296875 26.460938 -35.050781 19.246094 -35.050781 Z M 19.246094 -35.050781 "/></g></g></g><g fill="#000000" fill-opacity="1"><g transform="translate(171.726776, 247.208201)"><g><path d="M 43.128906 -4.46875 C 41.238281 -4.46875 39.605469 -5.757812 39.605469 -8.933594 L 39.605469 -34.363281 L 34.277344 -34.363281 L 34.277344 -29.898438 C 31.101562 -33.078125 26.632812 -35.050781 21.734375 -35.050781 C 11.855469 -35.050781 3.867188 -27.0625 3.867188 -17.183594 C 3.867188 -7.300781 11.855469 0.6875 21.734375 0.6875 C 26.890625 0.6875 31.53125 -1.71875 34.792969 -5.242188 C 35.910156 -1.71875 38.660156 0.6875 42.699219 0.6875 C 43.644531 0.6875 44.589844 0.429688 45.277344 0 L 45.277344 -4.46875 Z M 21.734375 -4.640625 C 14.777344 -4.640625 9.191406 -10.222656 9.191406 -17.183594 C 9.191406 -24.140625 14.777344 -29.726562 21.734375 -29.726562 C 28.609375 -29.726562 34.277344 -24.140625 34.277344 -17.183594 C 34.277344 -10.222656 28.609375 -4.640625 21.734375 -4.640625 Z M 21.734375 -4.640625 "/></g></g></g><g fill="#000000" fill-opacity="1"><g transform="translate(218.026044, 247.208201)"><g><path d="M 23.023438 -35.050781 C 18.128906 -35.050781 14.175781 -32.90625 11.597656 -29.46875 L 11.597656 -34.363281 L 6.273438 -34.363281 L 6.273438 0 L 11.597656 0 L 11.597656 -18.644531 C 11.597656 -24.914062 16.753906 -29.726562 23.023438 -29.726562 C 24.054688 -29.726562 24.914062 -29.640625 25.6875 -29.382812 L 25.6875 -34.792969 C 24.914062 -34.964844 24.054688 -35.050781 23.023438 -35.050781 Z M 23.023438 -35.050781 "/></g></g></g><g fill="#000000" fill-opacity="1"><g transform="translate(244.139171, 247.208201)"><g><path d="M 23.023438 -35.050781 C 18.128906 -35.050781 14.175781 -32.90625 11.597656 -29.46875 L 11.597656 -34.363281 L 6.273438 -34.363281 L 6.273438 0 L 11.597656 0 L 11.597656 -18.644531 C 11.597656 -24.914062 16.753906 -29.726562 23.023438 -29.726562 C 24.054688 -29.726562 24.914062 -29.640625 25.6875 -29.382812 L 25.6875 -34.792969 C 24.914062 -34.964844 24.054688 -35.050781 23.023438 -35.050781 Z M 23.023438 -35.050781 "/></g></g></g><g fill="#000000" fill-opacity="1"><g transform="translate(270.252298, 247.208201)"><g><path d="M 18.042969 0.6875 C 25.6875 0.6875 30.929688 -4.382812 30.929688 -12.371094 L 30.929688 -34.363281 L 25.6875 -34.363281 L 25.6875 -12.972656 C 25.6875 -7.816406 22.507812 -4.640625 18.042969 -4.640625 C 13.660156 -4.640625 10.394531 -7.816406 10.394531 -12.972656 L 10.394531 -34.363281 L 5.15625 -34.363281 L 5.15625 -12.371094 C 5.15625 -4.382812 10.308594 0.6875 18.042969 0.6875 Z M 18.042969 0.6875 "/></g></g></g><g fill="#000000" fill-opacity="1"><g transform="translate(306.243747, 247.208201)"><g><path d="M 43.128906 -4.46875 C 41.238281 -4.46875 39.605469 -5.757812 39.605469 -8.933594 L 39.605469 -34.363281 L 34.277344 -34.363281 L 34.277344 -29.898438 C 31.101562 -33.078125 26.632812 -35.050781 21.734375 -35.050781 C 11.855469 -35.050781 3.867188 -27.0625 3.867188 -17.183594 C 3.867188 -7.300781 11.855469 0.6875 21.734375 0.6875 C 26.890625 0.6875 31.53125 -1.71875 34.792969 -5.242188 C 35.910156 -1.71875 38.660156 0.6875 42.699219 0.6875 C 43.644531 0.6875 44.589844 0.429688 45.277344 0 L 45.277344 -4.46875 Z M 21.734375 -4.640625 C 14.777344 -4.640625 9.191406 -10.222656 9.191406 -17.183594 C 9.191406 -24.140625 14.777344 -29.726562 21.734375 -29.726562 C 28.609375 -29.726562 34.277344 -24.140625 34.277344 -17.183594 C 34.277344 -10.222656 28.609375 -4.640625 21.734375 -4.640625 Z M 21.734375 -4.640625 "/></g></g></g><g fill="#000000" fill-opacity="1"><g transform="translate(136.140874, 271.440349)"><g><path d="M 6.972656 0 L 8.09375 0 L 4.617188 -9.617188 L 3.480469 -9.617188 L 0 0 L 1.121094 0 L 1.90625 -2.246094 L 6.1875 -2.246094 Z M 2.246094 -3.222656 L 4.054688 -8.398438 L 5.851562 -3.222656 Z M 2.246094 -3.222656 "/></g></g></g><g fill="#000000" fill-opacity="1"><g transform="translate(144.236324, 271.440349)"><g><path d="M 3.367188 0.128906 C 4.792969 0.128906 5.769531 -0.816406 5.769531 -2.308594 L 5.769531 -6.414062 L 4.792969 -6.414062 L 4.792969 -2.421875 C 4.792969 -1.457031 4.199219 -0.867188 3.367188 -0.867188 C 2.550781 -0.867188 1.941406 -1.457031 1.941406 -2.421875 L 1.941406 -6.414062 L 0.960938 -6.414062 L 0.960938 -2.308594 C 0.960938 -0.816406 1.921875 0.128906 3.367188 0.128906 Z M 3.367188 0.128906 "/></g></g></g><g fill="#000000" fill-opacity="1"><g transform="translate(150.953141, 271.440349)"><g><path d="M 4.121094 -5.449219 L 4.121094 -6.414062 L 2.40625 -6.414062 L 2.40625 -9.203125 L 1.410156 -9.203125 L 1.410156 -6.414062 L 0.335938 -6.414062 L 0.335938 -5.449219 L 1.410156 -5.449219 L 1.410156 -1.683594 C 1.410156 -0.671875 2.261719 0.128906 3.253906 0.128906 C 3.574219 0.128906 3.925781 0.03125 4.105469 -0.0820312 L 4.105469 -0.832031 L 3.367188 -0.832031 C 2.851562 -0.832031 2.40625 -1.21875 2.40625 -1.8125 L 2.40625 -5.449219 Z M 4.121094 -5.449219 "/></g></g></g><g fill="#000000" fill-opacity="1"><g transform="translate(155.602008, 271.440349)"><g><path d="M 6.285156 -9.683594 L 5.128906 -9.683594 L 3.71875 -7.308594 L 4.390625 -7.308594 Z M 7.390625 -3.269531 C 7.34375 -5.113281 5.882812 -6.539062 4.054688 -6.539062 C 2.210938 -6.539062 0.722656 -5.050781 0.722656 -3.207031 C 0.722656 -1.363281 2.210938 0.128906 4.054688 0.128906 C 5.578125 0.128906 6.84375 -0.882812 7.261719 -2.261719 L 6.203125 -2.261719 C 5.851562 -1.425781 5.019531 -0.867188 4.054688 -0.867188 C 2.789062 -0.867188 1.78125 -1.828125 1.714844 -3.0625 L 7.375 -3.0625 Z M 4.054688 -5.546875 C 5.082031 -5.546875 5.949219 -4.890625 6.25 -3.960938 L 1.84375 -3.960938 C 2.164062 -4.890625 3.03125 -5.546875 4.054688 -5.546875 Z M 4.054688 -5.546875 "/></g></g></g><g fill="#000000" fill-opacity="1"><g transform="translate(163.649369, 271.440349)"><g><path d="M 3.71875 -6.539062 C 3.125 -6.539062 2.582031 -6.300781 2.164062 -5.898438 L 2.164062 -6.414062 L 1.171875 -6.414062 L 1.171875 0 L 2.164062 0 L 2.164062 -4.085938 C 2.164062 -4.90625 2.820312 -5.546875 3.640625 -5.546875 C 4.457031 -5.546875 5.097656 -4.90625 5.097656 -4.085938 L 5.097656 0 L 6.089844 0 L 6.089844 -4.085938 C 6.089844 -5.449219 4.953125 -6.539062 3.71875 -6.539062 Z M 3.71875 -6.539062 "/></g></g></g><g fill="#000000" fill-opacity="1"><g transform="translate(170.831075, 271.440349)"><g><path d="M 4.121094 -5.449219 L 4.121094 -6.414062 L 2.40625 -6.414062 L 2.40625 -9.203125 L 1.410156 -9.203125 L 1.410156 -6.414062 L 0.335938 -6.414062 L 0.335938 -5.449219 L 1.410156 -5.449219 L 1.410156 -1.683594 C 1.410156 -0.671875 2.261719 0.128906 3.253906 0.128906 C 3.574219 0.128906 3.925781 0.03125 4.105469 -0.0820312 L 4.105469 -0.832031 L 3.367188 -0.832031 C 2.851562 -0.832031 2.40625 -1.21875 2.40625 -1.8125 L 2.40625 -5.449219 Z M 4.121094 -5.449219 "/></g></g></g><g fill="#000000" fill-opacity="1"><g transform="translate(175.479942, 271.440349)"><g><path d="M 1.796875 -7.613281 C 2.164062 -7.613281 2.484375 -7.917969 2.484375 -8.289062 C 2.484375 -8.6875 2.164062 -8.976562 1.796875 -8.976562 C 1.410156 -8.976562 1.089844 -8.6875 1.089844 -8.289062 C 1.089844 -7.917969 1.410156 -7.613281 1.796875 -7.613281 Z M 1.296875 0 L 2.292969 0 L 2.292969 -6.414062 L 1.296875 -6.414062 Z M 1.296875 0 "/></g></g></g><g fill="#000000" fill-opacity="1"><g transform="translate(179.054761, 271.440349)"><g><path d="M 4.054688 0.128906 C 5.546875 0.128906 6.796875 -0.832031 7.230469 -2.179688 L 6.171875 -2.179688 C 5.785156 -1.394531 4.984375 -0.867188 4.054688 -0.867188 C 2.757812 -0.867188 1.714844 -1.890625 1.714844 -3.207031 C 1.714844 -4.519531 2.757812 -5.546875 4.054688 -5.546875 C 4.984375 -5.546875 5.785156 -5.019531 6.171875 -4.230469 L 7.230469 -4.230469 C 6.796875 -5.578125 5.546875 -6.539062 4.054688 -6.539062 C 2.210938 -6.539062 0.722656 -5.050781 0.722656 -3.207031 C 0.722656 -1.363281 2.210938 0.128906 4.054688 0.128906 Z M 4.054688 0.128906 "/></g></g></g><g fill="#000000" fill-opacity="1"><g transform="translate(186.701356, 271.440349)"><g><path d="M 4.054688 0.128906 C 5.898438 0.128906 7.390625 -1.363281 7.390625 -3.207031 C 7.390625 -5.050781 5.898438 -6.539062 4.054688 -6.539062 C 2.210938 -6.539062 0.722656 -5.050781 0.722656 -3.207031 C 0.722656 -1.363281 2.210938 0.128906 4.054688 0.128906 Z M 4.054688 -0.867188 C 2.757812 -0.867188 1.714844 -1.90625 1.714844 -3.207031 C 1.714844 -4.503906 2.757812 -5.546875 4.054688 -5.546875 C 5.339844 -5.546875 6.394531 -4.503906 6.394531 -3.207031 C 6.394531 -1.90625 5.339844 -0.867188 4.054688 -0.867188 Z M 4.054688 -0.867188 "/></g></g></g><g fill="#000000" fill-opacity="1"><g transform="translate(194.812841, 271.440349)"><g/></g></g><g fill="#000000" fill-opacity="1"><g transform="translate(198.676211, 271.440349)"><g><path d="M 2.757812 0.128906 C 3.878906 0.128906 4.808594 -0.625 4.808594 -1.730469 C 4.808594 -2.886719 3.847656 -3.335938 3.015625 -3.671875 C 2.226562 -4.007812 1.828125 -4.183594 1.828125 -4.746094 C 1.828125 -5.289062 2.195312 -5.546875 2.726562 -5.546875 C 3.140625 -5.546875 3.511719 -5.371094 3.6875 -5.035156 L 4.550781 -5.484375 C 4.3125 -6.058594 3.496094 -6.539062 2.675781 -6.539062 C 1.730469 -6.539062 0.816406 -5.882812 0.816406 -4.714844 C 0.816406 -3.703125 1.492188 -3.191406 2.628906 -2.757812 C 3.398438 -2.453125 3.816406 -2.246094 3.816406 -1.730469 C 3.816406 -1.171875 3.335938 -0.851562 2.757812 -0.851562 C 2.164062 -0.851562 1.585938 -1.1875 1.492188 -1.652344 L 0.527344 -1.265625 C 0.769531 -0.496094 1.730469 0.128906 2.757812 0.128906 Z M 2.757812 0.128906 "/></g></g></g><g fill="#000000" fill-opacity="1"><g transform="translate(203.982339, 271.440349)"><g><path d="M 8.046875 -0.832031 C 7.695312 -0.832031 7.390625 -1.074219 7.390625 -1.667969 L 7.390625 -6.414062 L 6.394531 -6.414062 L 6.394531 -5.578125 C 5.804688 -6.171875 4.96875 -6.539062 4.054688 -6.539062 C 2.210938 -6.539062 0.722656 -5.050781 0.722656 -3.207031 C 0.722656 -1.363281 2.210938 0.128906 4.054688 0.128906 C 5.019531 0.128906 5.882812 -0.320312 6.492188 -0.976562 C 6.699219 -0.320312 7.214844 0.128906 7.96875 0.128906 C 8.144531 0.128906 8.320312 0.0820312 8.449219 0 L 8.449219 -0.832031 Z M 4.054688 -0.867188 C 2.757812 -0.867188 1.714844 -1.90625 1.714844 -3.207031 C 1.714844 -4.503906 2.757812 -5.546875 4.054688 -5.546875 C 5.339844 -5.546875 6.394531 -4.503906 6.394531 -3.207031 C 6.394531 -1.90625 5.339844 -0.867188 4.054688 -0.867188 Z M 4.054688 -0.867188 "/></g></g></g><g fill="#000000" fill-opacity="1"><g transform="translate(212.622824, 271.440349)"><g><path d="M 4.503906 -6.539062 C 3.589844 -6.539062 2.773438 -6.171875 2.164062 -5.578125 L 2.164062 -11.796875 L 1.171875 -11.796875 L 1.171875 0 L 2.164062 0 L 2.164062 -0.832031 C 2.773438 -0.242188 3.589844 0.128906 4.503906 0.128906 C 6.347656 0.128906 7.839844 -1.363281 7.839844 -3.207031 C 7.839844 -5.050781 6.347656 -6.539062 4.503906 -6.539062 Z M 4.503906 -0.867188 C 3.207031 -0.867188 2.164062 -1.90625 2.164062 -3.207031 C 2.164062 -4.503906 3.207031 -5.546875 4.503906 -5.546875 C 5.804688 -5.546875 6.84375 -4.503906 6.84375 -3.207031 C 6.84375 -1.90625 5.804688 -0.867188 4.503906 -0.867188 Z M 4.503906 -0.867188 "/></g></g></g><g fill="#000000" fill-opacity="1"><g transform="translate(221.183164, 271.440349)"><g><path d="M 4.054688 0.128906 C 5.898438 0.128906 7.390625 -1.363281 7.390625 -3.207031 C 7.390625 -5.050781 5.898438 -6.539062 4.054688 -6.539062 C 2.210938 -6.539062 0.722656 -5.050781 0.722656 -3.207031 C 0.722656 -1.363281 2.210938 0.128906 4.054688 0.128906 Z M 4.054688 -0.867188 C 2.757812 -0.867188 1.714844 -1.90625 1.714844 -3.207031 C 1.714844 -4.503906 2.757812 -5.546875 4.054688 -5.546875 C 5.339844 -5.546875 6.394531 -4.503906 6.394531 -3.207031 C 6.394531 -1.90625 5.339844 -0.867188 4.054688 -0.867188 Z M 4.054688 -0.867188 "/></g></g></g><g fill="#000000" fill-opacity="1"><g transform="translate(229.294648, 271.440349)"><g><path d="M 4.296875 -6.539062 C 3.382812 -6.539062 2.644531 -6.140625 2.164062 -5.5 L 2.164062 -6.414062 L 1.171875 -6.414062 L 1.171875 0 L 2.164062 0 L 2.164062 -3.480469 C 2.164062 -4.648438 3.125 -5.546875 4.296875 -5.546875 C 4.488281 -5.546875 4.648438 -5.53125 4.792969 -5.484375 L 4.792969 -6.492188 C 4.648438 -6.523438 4.488281 -6.539062 4.296875 -6.539062 Z M 4.296875 -6.539062 "/></g></g></g><g fill="#000000" fill-opacity="1"><g transform="translate(234.167955, 271.440349)"><g/></g></g><g fill="#000000" fill-opacity="1"><g transform="translate(238.031325, 271.440349)"><g><path d="M 6.394531 -11.796875 L 6.394531 -5.578125 C 5.785156 -6.171875 4.96875 -6.539062 4.054688 -6.539062 C 2.210938 -6.539062 0.722656 -5.050781 0.722656 -3.207031 C 0.722656 -1.363281 2.210938 0.128906 4.054688 0.128906 C 4.96875 0.128906 5.785156 -0.242188 6.394531 -0.832031 L 6.394531 0 L 7.390625 0 L 7.390625 -11.796875 Z M 4.054688 -0.867188 C 2.757812 -0.867188 1.714844 -1.90625 1.714844 -3.207031 C 1.714844 -4.503906 2.757812 -5.546875 4.054688 -5.546875 C 5.339844 -5.546875 6.394531 -4.503906 6.394531 -3.207031 C 6.394531 -1.90625 5.339844 -0.867188 4.054688 -0.867188 Z M 4.054688 -0.867188 "/></g></g></g><g fill="#000000" fill-opacity="1"><g transform="translate(246.591665, 271.440349)"><g><path d="M 7.390625 -3.269531 C 7.34375 -5.113281 5.882812 -6.539062 4.054688 -6.539062 C 2.210938 -6.539062 0.722656 -5.050781 0.722656 -3.207031 C 0.722656 -1.363281 2.210938 0.128906 4.054688 0.128906 C 5.578125 0.128906 6.84375 -0.882812 7.261719 -2.261719 L 6.203125 -2.261719 C 5.851562 -1.425781 5.019531 -0.867188 4.054688 -0.867188 C 2.789062 -0.867188 1.78125 -1.828125 1.714844 -3.0625 L 7.375 -3.0625 Z M 4.054688 -5.546875 C 5.082031 -5.546875 5.949219 -4.890625 6.25 -3.960938 L 1.84375 -3.960938 C 2.164062 -4.890625 3.03125 -5.546875 4.054688 -5.546875 Z M 4.054688 -5.546875 "/></g></g></g><g fill="#000000" fill-opacity="1"><g transform="translate(254.639025, 271.440349)"><g><path d="M 1.171875 0 L 2.164062 0 L 2.164062 -11.796875 L 1.171875 -11.796875 Z M 1.171875 0 "/></g></g></g><g fill="#000000" fill-opacity="1"><g transform="translate(257.973395, 271.440349)"><g/></g></g><g fill="#000000" fill-opacity="1"><g transform="translate(261.836766, 271.440349)"><g><path d="M 5.066406 -4.390625 C 6.332031 -4.570312 7.292969 -5.625 7.292969 -6.925781 C 7.292969 -8.433594 6.089844 -9.617188 4.617188 -9.617188 L 1.171875 -9.617188 L 1.171875 0 L 2.195312 0 L 2.195312 -4.34375 L 4.007812 -4.34375 L 6.734375 0 L 7.902344 0 Z M 2.195312 -5.320312 L 2.195312 -8.59375 L 4.550781 -8.59375 C 5.515625 -8.59375 6.269531 -7.917969 6.269531 -6.957031 C 6.269531 -5.980469 5.53125 -5.320312 4.550781 -5.320312 Z M 2.195312 -5.320312 "/></g></g></g><g fill="#000000" fill-opacity="1"><g transform="translate(269.884126, 271.440349)"><g><path d="M 1.363281 -7.246094 L 2.035156 -7.246094 L 3.925781 -9.617188 L 2.773438 -9.617188 Z M 1.265625 0 L 2.261719 0 L 2.261719 -6.414062 L 1.265625 -6.414062 Z M 1.265625 0 "/></g></g></g><g fill="#000000" fill-opacity="1"><g transform="translate(273.394821, 271.440349)"><g><path d="M 4.054688 0.128906 C 5.898438 0.128906 7.390625 -1.363281 7.390625 -3.207031 C 7.390625 -5.050781 5.898438 -6.539062 4.054688 -6.539062 C 2.210938 -6.539062 0.722656 -5.050781 0.722656 -3.207031 C 0.722656 -1.363281 2.210938 0.128906 4.054688 0.128906 Z M 4.054688 -0.867188 C 2.757812 -0.867188 1.714844 -1.90625 1.714844 -3.207031 C 1.714844 -4.503906 2.757812 -5.546875 4.054688 -5.546875 C 5.339844 -5.546875 6.394531 -4.503906 6.394531 -3.207031 C 6.394531 -1.90625 5.339844 -0.867188 4.054688 -0.867188 Z M 4.054688 -0.867188 "/></g></g></g><g fill="#000000" fill-opacity="1"><g transform="translate(281.506306, 271.440349)"><g/></g></g><g fill="#000000" fill-opacity="1"><g transform="translate(285.369676, 271.440349)"><g><path d="M 6.394531 -11.796875 L 6.394531 -5.578125 C 5.785156 -6.171875 4.96875 -6.539062 4.054688 -6.539062 C 2.210938 -6.539062 0.722656 -5.050781 0.722656 -3.207031 C 0.722656 -1.363281 2.210938 0.128906 4.054688 0.128906 C 4.96875 0.128906 5.785156 -0.242188 6.394531 -0.832031 L 6.394531 0 L 7.390625 0 L 7.390625 -11.796875 Z M 4.054688 -0.867188 C 2.757812 -0.867188 1.714844 -1.90625 1.714844 -3.207031 C 1.714844 -4.503906 2.757812 -5.546875 4.054688 -5.546875 C 5.339844 -5.546875 6.394531 -4.503906 6.394531 -3.207031 C 6.394531 -1.90625 5.339844 -0.867188 4.054688 -0.867188 Z M 4.054688 -0.867188 "/></g></g></g><g fill="#000000" fill-opacity="1"><g transform="translate(293.930016, 271.440349)"><g><path d="M 7.390625 -3.269531 C 7.34375 -5.113281 5.882812 -6.539062 4.054688 -6.539062 C 2.210938 -6.539062 0.722656 -5.050781 0.722656 -3.207031 C 0.722656 -1.363281 2.210938 0.128906 4.054688 0.128906 C 5.578125 0.128906 6.84375 -0.882812 7.261719 -2.261719 L 6.203125 -2.261719 C 5.851562 -1.425781 5.019531 -0.867188 4.054688 -0.867188 C 2.789062 -0.867188 1.78125 -1.828125 1.714844 -3.0625 L 7.375 -3.0625 Z M 4.054688 -5.546875 C 5.082031 -5.546875 5.949219 -4.890625 6.25 -3.960938 L 1.84375 -3.960938 C 2.164062 -4.890625 3.03125 -5.546875 4.054688 -5.546875 Z M 4.054688 -5.546875 "/></g></g></g><g fill="#000000" fill-opacity="1"><g transform="translate(301.977376, 271.440349)"><g/></g></g><g fill="#000000" fill-opacity="1"><g transform="translate(305.840747, 271.440349)"><g><path d="M 1.171875 0 L 2.164062 0 L 2.164062 -11.796875 L 1.171875 -11.796875 Z M 1.171875 0 "/></g></g></g><g fill="#000000" fill-opacity="1"><g transform="translate(309.175116, 271.440349)"><g><path d="M 8.046875 -0.832031 C 7.695312 -0.832031 7.390625 -1.074219 7.390625 -1.667969 L 7.390625 -6.414062 L 6.394531 -6.414062 L 6.394531 -5.578125 C 5.804688 -6.171875 4.96875 -6.539062 4.054688 -6.539062 C 2.210938 -6.539062 0.722656 -5.050781 0.722656 -3.207031 C 0.722656 -1.363281 2.210938 0.128906 4.054688 0.128906 C 5.019531 0.128906 5.882812 -0.320312 6.492188 -0.976562 C 6.699219 -0.320312 7.214844 0.128906 7.96875 0.128906 C 8.144531 0.128906 8.320312 0.0820312 8.449219 0 L 8.449219 -0.832031 Z M 4.054688 -0.867188 C 2.757812 -0.867188 1.714844 -1.90625 1.714844 -3.207031 C 1.714844 -4.503906 2.757812 -5.546875 4.054688 -5.546875 C 5.339844 -5.546875 6.394531 -4.503906 6.394531 -3.207031 C 6.394531 -1.90625 5.339844 -0.867188 4.054688 -0.867188 Z M 4.054688 -0.867188 "/></g></g></g><g fill="#000000" fill-opacity="1"><g transform="translate(317.815602, 271.440349)"><g/></g></g><g fill="#000000" fill-opacity="1"><g transform="translate(321.678972, 271.440349)"><g><path d="M 4.617188 -9.617188 L 1.171875 -9.617188 L 1.171875 0 L 2.195312 0 L 2.195312 -4.28125 L 4.617188 -4.28125 C 6.109375 -4.28125 7.292969 -5.449219 7.292969 -6.941406 C 7.292969 -8.417969 6.109375 -9.617188 4.617188 -9.617188 Z M 4.519531 -5.257812 L 2.195312 -5.257812 L 2.195312 -8.625 L 4.519531 -8.625 C 5.484375 -8.625 6.269531 -7.953125 6.269531 -6.925781 C 6.269531 -5.867188 5.484375 -5.257812 4.519531 -5.257812 Z M 4.519531 -5.257812 "/></g></g></g><g fill="#000000" fill-opacity="1"><g transform="translate(329.245409, 271.440349)"><g><path d="M 1.171875 0 L 2.164062 0 L 2.164062 -11.796875 L 1.171875 -11.796875 Z M 1.171875 0 "/></g></g></g><g fill="#000000" fill-opacity="1"><g transform="translate(332.579779, 271.440349)"><g><path d="M 8.046875 -0.832031 C 7.695312 -0.832031 7.390625 -1.074219 7.390625 -1.667969 L 7.390625 -6.414062 L 6.394531 -6.414062 L 6.394531 -5.578125 C 5.804688 -6.171875 4.96875 -6.539062 4.054688 -6.539062 C 2.210938 -6.539062 0.722656 -5.050781 0.722656 -3.207031 C 0.722656 -1.363281 2.210938 0.128906 4.054688 0.128906 C 5.019531 0.128906 5.882812 -0.320312 6.492188 -0.976562 C 6.699219 -0.320312 7.214844 0.128906 7.96875 0.128906 C 8.144531 0.128906 8.320312 0.0820312 8.449219 0 L 8.449219 -0.832031 Z M 4.054688 -0.867188 C 2.757812 -0.867188 1.714844 -1.90625 1.714844 -3.207031 C 1.714844 -4.503906 2.757812 -5.546875 4.054688 -5.546875 C 5.339844 -5.546875 6.394531 -4.503906 6.394531 -3.207031 C 6.394531 -1.90625 5.339844 -0.867188 4.054688 -0.867188 Z M 4.054688 -0.867188 "/></g></g></g><g fill="#000000" fill-opacity="1"><g transform="translate(341.220264, 271.440349)"><g><path d="M 4.121094 -5.449219 L 4.121094 -6.414062 L 2.40625 -6.414062 L 2.40625 -9.203125 L 1.410156 -9.203125 L 1.410156 -6.414062 L 0.335938 -6.414062 L 0.335938 -5.449219 L 1.410156 -5.449219 L 1.410156 -1.683594 C 1.410156 -0.671875 2.261719 0.128906 3.253906 0.128906 C 3.574219 0.128906 3.925781 0.03125 4.105469 -0.0820312 L 4.105469 -0.832031 L 3.367188 -0.832031 C 2.851562 -0.832031 2.40625 -1.21875 2.40625 -1.8125 L 2.40625 -5.449219 Z M 4.121094 -5.449219 "/></g></g></g><g fill="#000000" fill-opacity="1"><g transform="translate(345.869119, 271.440349)"><g><path d="M 8.046875 -0.832031 C 7.695312 -0.832031 7.390625 -1.074219 7.390625 -1.667969 L 7.390625 -6.414062 L 6.394531 -6.414062 L 6.394531 -5.578125 C 5.804688 -6.171875 4.96875 -6.539062 4.054688 -6.539062 C 2.210938 -6.539062 0.722656 -5.050781 0.722656 -3.207031 C 0.722656 -1.363281 2.210938 0.128906 4.054688 0.128906 C 5.019531 0.128906 5.882812 -0.320312 6.492188 -0.976562 C 6.699219 -0.320312 7.214844 0.128906 7.96875 0.128906 C 8.144531 0.128906 8.320312 0.0820312 8.449219 0 L 8.449219 -0.832031 Z M 4.054688 -0.867188 C 2.757812 -0.867188 1.714844 -1.90625 1.714844 -3.207031 C 1.714844 -4.503906 2.757812 -5.546875 4.054688 -5.546875 C 5.339844 -5.546875 6.394531 -4.503906 6.394531 -3.207031 C 6.394531 -1.90625 5.339844 -0.867188 4.054688 -0.867188 Z M 4.054688 -0.867188 "/></g></g></g><g fill="#000000" fill-opacity="1"><g transform="translate(354.509592, 271.440349)"><g><path d="M 1.523438 0.128906 C 2.003906 0.128906 2.40625 -0.273438 2.40625 -0.753906 C 2.40625 -1.234375 2.003906 -1.636719 1.523438 -1.636719 C 1.058594 -1.636719 0.640625 -1.234375 0.640625 -0.753906 C 0.640625 -0.273438 1.058594 0.128906 1.523438 0.128906 Z M 1.523438 0.128906 "/></g></g></g></svg>