<svg xmlns="http://www.w3.org/2000/svg" xmlns:xlink="http://www.w3.org/1999/xlink" width="500" zoomAndPan="magnify" viewBox="0 0 375 374.999991" height="500" preserveAspectRatio="xMidYMid meet" version="1.0"><defs><g/><clipPath id="bca8590642"><path d="M 195.566406 120.5625 L 236.921875 120.5625 L 236.921875 157.3125 L 195.566406 157.3125 Z M 195.566406 120.5625 " clip-rule="nonzero"/></clipPath><clipPath id="e80ed0b7bc"><path d="M 189.058594 134.296875 L 218.207031 134.296875 L 218.207031 156.21875 L 189.058594 156.21875 Z M 189.058594 134.296875 " clip-rule="nonzero"/></clipPath></defs><g fill="#f10000" fill-opacity="1"><g transform="translate(201.146358, 188.93402)"><g><path d="M 21.734375 0.6875 C 31.617188 0.6875 39.605469 -7.300781 39.605469 -17.183594 C 39.605469 -27.0625 31.617188 -35.050781 21.734375 -35.050781 C 11.855469 -35.050781 3.867188 -27.0625 3.867188 -17.183594 C 3.867188 -7.300781 11.855469 0.6875 21.734375 0.6875 Z M 21.734375 -4.640625 C 14.777344 -4.640625 9.191406 -10.222656 9.191406 -17.183594 C 9.191406 -24.140625 14.777344 -29.726562 21.734375 -29.726562 C 28.609375 -29.726562 34.277344 -24.140625 34.277344 -17.183594 C 34.277344 -10.222656 28.609375 -4.640625 21.734375 -4.640625 Z M 21.734375 -4.640625 "/></g></g></g><g fill="#000000" fill-opacity="1"><g transform="translate(244.611569, 188.93402)"><g/></g></g><g clip-path="url(#bca8590642)"><path fill="#ffffff" d="M 205.582031 137.875 C 211.671875 133.910156 218.597656 125.011719 225.402344 125.492188 C 232.207031 125.972656 234.238281 134.992188 228.984375 139.558594 C 228.984375 139.558594 230.539062 133.910156 228.386719 130.300781 C 228.386719 130.300781 229.941406 136.433594 225.640625 139.4375 C 225.640625 139.4375 225.042969 133.863281 222.296875 131.601562 C 222.296875 131.601562 224.566406 136.433594 223.375 139.558594 C 223.375 139.558594 211.671875 140.039062 204.03125 147.855469 C 204.03125 147.855469 216.804688 140.519531 229.820312 143.285156 L 231.492188 148.695312 C 231.492188 148.695312 215.132812 147.253906 204.628906 156.632812 C 204.628906 156.632812 220.746094 148.9375 234.835938 151.582031 L 231.851562 141.964844 C 231.851562 141.964844 237.941406 134.507812 235.789062 127.535156 C 233.640625 120.5625 224.449219 119.601562 217.761719 123.570312 C 211.074219 127.535156 204.984375 139.320312 196.269531 140.761719 C 196.269531 140.761719 199.492188 141.84375 205.582031 137.875 Z M 195.597656 140.707031 C 195.621094 140.398438 195.855469 140.140625 196.160156 140.089844 C 201.242188 139.25 205.445312 134.675781 209.507812 130.253906 C 212.191406 127.339844 214.722656 124.585938 217.417969 122.984375 C 220.050781 121.421875 223.128906 120.5625 226.078125 120.5625 C 228.476562 120.5625 230.675781 121.128906 232.445312 122.203125 C 234.382812 123.378906 235.761719 125.152344 236.433594 127.335938 C 236.957031 129.027344 237.0625 130.878906 236.746094 132.839844 C 236.5 134.386719 235.992188 136.003906 235.238281 137.648438 C 234.238281 139.832031 233.082031 141.460938 232.597656 142.101562 L 235.480469 151.378906 C 235.550781 151.605469 235.496094 151.855469 235.339844 152.03125 C 235.210938 152.179688 235.027344 152.261719 234.835938 152.261719 C 234.792969 152.261719 234.753906 152.257812 234.710938 152.25 C 232.796875 151.890625 230.726562 151.707031 228.5625 151.707031 C 222.355469 151.707031 216.261719 153.210938 212.246094 154.472656 C 207.878906 155.839844 204.953125 157.226562 204.917969 157.246094 C 204.824219 157.289062 204.726562 157.3125 204.628906 157.3125 C 204.40625 157.3125 204.191406 157.203125 204.066406 157.007812 C 203.878906 156.722656 203.929688 156.347656 204.179688 156.125 C 207.753906 152.9375 212.347656 150.632812 217.84375 149.277344 C 222.324219 148.171875 226.417969 147.9375 229.066406 147.9375 C 229.664062 147.9375 230.167969 147.949219 230.558594 147.964844 L 229.296875 143.871094 C 227.507812 143.519531 225.628906 143.34375 223.695312 143.34375 C 218.316406 143.34375 213.355469 144.726562 210.136719 145.886719 C 206.636719 147.152344 204.386719 148.433594 204.363281 148.445312 C 204.257812 148.503906 204.144531 148.535156 204.03125 148.535156 C 203.828125 148.535156 203.628906 148.441406 203.496094 148.269531 C 203.289062 148 203.3125 147.621094 203.550781 147.378906 C 205.34375 145.546875 207.5 143.957031 209.964844 142.660156 C 211.925781 141.625 214.085938 140.773438 216.386719 140.121094 C 219.433594 139.261719 221.882812 138.992188 222.875 138.910156 C 223.628906 136.085938 221.710938 131.933594 221.6875 131.890625 C 221.554688 131.605469 221.636719 131.261719 221.882812 131.066406 C 222.003906 130.972656 222.152344 130.921875 222.296875 130.921875 C 222.449219 130.921875 222.601562 130.972656 222.726562 131.078125 C 224.855469 132.832031 225.773438 136.300781 226.121094 138.148438 C 227.1875 137.058594 227.800781 135.574219 227.953125 133.726562 C 228.097656 131.945312 227.738281 130.484375 227.734375 130.46875 C 227.652344 130.144531 227.820312 129.804688 228.128906 129.675781 C 228.214844 129.640625 228.300781 129.621094 228.386719 129.621094 C 228.617188 129.621094 228.839844 129.742188 228.964844 129.953125 C 230.320312 132.222656 230.320312 135.171875 230.085938 137.242188 C 231.316406 135.273438 231.644531 132.839844 230.894531 130.570312 C 230.046875 128 227.976562 126.355469 225.355469 126.167969 C 225.195312 126.15625 225.03125 126.152344 224.867188 126.152344 C 220.609375 126.152344 216.199219 129.976562 211.9375 133.671875 C 209.855469 135.476562 207.886719 137.183594 205.949219 138.445312 C 201.980469 141.03125 199.140625 141.574219 197.457031 141.574219 C 196.585938 141.574219 196.109375 141.421875 196.054688 141.40625 C 195.761719 141.308594 195.574219 141.019531 195.597656 140.707031 " fill-opacity="1" fill-rule="nonzero"/></g><g clip-path="url(#e80ed0b7bc)"><path fill="#ffffff" d="M 199.730469 149.621094 L 201.761719 155.511719 C 201.761719 155.511719 209.640625 149.378906 217.523438 148.296875 C 217.523438 148.296875 211.550781 147.457031 202.835938 152.023438 L 200.925781 146.976562 C 200.925781 146.976562 194.71875 148.898438 192.210938 144.089844 C 189.703125 139.28125 194.78125 135.949219 201.761719 135.074219 C 201.761719 135.074219 194.808594 134.230469 191.375 137.835938 C 187.632812 141.765625 189.582031 151.421875 199.730469 149.621094 Z M 189.03125 141.324219 C 189.261719 139.785156 189.921875 138.382812 190.886719 137.367188 C 192.007812 136.191406 193.570312 135.335938 195.53125 134.832031 C 197.214844 134.398438 198.882812 134.308594 199.984375 134.308594 C 201.085938 134.308594 201.8125 134.394531 201.84375 134.398438 C 202.179688 134.441406 202.433594 134.726562 202.4375 135.070312 C 202.4375 135.414062 202.183594 135.703125 201.84375 135.746094 C 199.574219 136.03125 197.523438 136.582031 195.917969 137.34375 C 194.308594 138.105469 193.167969 139.0625 192.621094 140.117188 C 192.050781 141.214844 192.113281 142.445312 192.804688 143.773438 C 193.8125 145.699219 195.597656 146.675781 198.117188 146.675781 C 199.570312 146.675781 200.71875 146.328125 200.726562 146.328125 C 200.792969 146.304688 200.859375 146.296875 200.925781 146.296875 C 201.199219 146.296875 201.453125 146.464844 201.554688 146.734375 L 203.199219 151.078125 C 209.289062 148.023438 213.984375 147.558594 216.289062 147.558594 C 217.128906 147.558594 217.597656 147.621094 217.617188 147.625 C 217.949219 147.671875 218.195312 147.960938 218.195312 148.300781 C 218.195312 148.636719 217.945312 148.925781 217.613281 148.96875 C 213.65625 149.515625 209.675781 151.402344 207.035156 152.890625 C 204.152344 154.515625 202.191406 156.035156 202.171875 156.046875 C 202.054688 156.140625 201.910156 156.191406 201.761719 156.191406 C 201.699219 156.191406 201.632812 156.179688 201.570312 156.164062 C 201.363281 156.101562 201.195312 155.941406 201.125 155.734375 L 199.28125 150.378906 C 198.613281 150.472656 197.964844 150.519531 197.347656 150.519531 C 195.410156 150.519531 193.730469 150.066406 192.351562 149.167969 C 191.125 148.367188 190.167969 147.214844 189.585938 145.835938 C 188.996094 144.449219 188.800781 142.847656 189.03125 141.324219 " fill-opacity="1" fill-rule="nonzero"/></g><g fill="#ffffff" fill-opacity="1"><g transform="translate(104.459062, 251.425103)"><g><path d="M 96.875 -18.859375 C 93.445312 -13.347656 89.953125 -9.175781 86.390625 -6.34375 C 82.828125 -3.519531 78.679688 -1.378906 73.953125 0.078125 C 69.234375 1.535156 63.675781 2.265625 57.28125 2.265625 C 41.125 2.265625 29.210938 -2.394531 21.546875 -11.71875 C 13.878906 -21.050781 10.046875 -35.125 10.046875 -53.9375 C 10.046875 -72.6875 13.851562 -86.738281 21.46875 -96.09375 C 29.082031 -105.445312 40.8125 -110.125 56.65625 -110.125 C 62.945312 -110.125 68.554688 -109.34375 73.484375 -107.78125 C 78.421875 -106.21875 82.59375 -104.070312 86 -101.34375 C 89.40625 -98.625 92.507812 -94.796875 95.3125 -89.859375 L 83.46875 -82.0625 C 81.175781 -85.90625 78.863281 -88.828125 76.53125 -90.828125 C 74.195312 -92.828125 71.390625 -94.410156 68.109375 -95.578125 C 64.835938 -96.753906 61.019531 -97.34375 56.65625 -97.34375 C 45.851562 -97.34375 37.914062 -93.742188 32.84375 -86.546875 C 27.78125 -79.347656 25.25 -68.476562 25.25 -53.9375 C 25.25 -39.59375 27.742188 -28.769531 32.734375 -21.46875 C 37.722656 -14.164062 45.75 -10.515625 56.8125 -10.515625 C 62.945312 -10.515625 68.273438 -11.722656 72.796875 -14.140625 C 77.316406 -16.554688 81.367188 -20.726562 84.953125 -26.65625 Z M 96.875 -18.859375 "/></g></g></g><g fill="#f10000" fill-opacity="1"><g transform="translate(206.502075, 248.038571)"><g><path d="M 19.246094 -35.050781 C 16.410156 -35.050781 13.746094 -34.105469 11.597656 -32.5625 L 11.597656 -63.230469 L 6.273438 -63.230469 L 6.273438 0 L 11.597656 0 L 11.597656 -21.992188 C 11.597656 -26.375 15.035156 -29.726562 19.246094 -29.726562 C 23.453125 -29.726562 26.976562 -26.375 26.976562 -21.992188 L 26.976562 0 L 32.21875 0 L 32.21875 -21.992188 C 32.21875 -29.296875 26.460938 -35.050781 19.246094 -35.050781 Z M 19.246094 -35.050781 "/></g></g></g></svg>